<svg xmlns="http://www.w3.org/2000/svg" xmlns:xlink="http://www.w3.org/1999/xlink" width="23.274" height="23.274" viewBox="0 0 23.274 23.274"><defs><filter id="a" x="0" y="0" width="23.274" height="23.274" filterUnits="userSpaceOnUse"><feOffset dx="1" dy="1" input="SourceAlpha"/><feGaussianBlur stdDeviation="0.5" result="b"/><feFlood flood-opacity="0.161"/><feComposite operator="in" in2="b"/><feComposite in="SourceGraphic"/></filter></defs><g transform="matrix(1, 0, 0, 1, 0, 0)" filter="url(#a)"><path d="M12.637,8.132a4.505,4.505,0,1,0,4.505,4.505,4.5,4.5,0,0,0-4.505-4.505ZM4.753,16.016H2.5v4.505a2.259,2.259,0,0,0,2.253,2.253H9.258V20.521H4.753Zm0-11.263H9.258V2.5H4.753A2.259,2.259,0,0,0,2.5,4.753V9.258H4.753ZM20.521,2.5H16.016V4.753h4.505V9.258h2.253V4.753A2.259,2.259,0,0,0,20.521,2.5Zm0,18.021H16.016v2.253h4.505a2.259,2.259,0,0,0,2.253-2.253V16.016H20.521v4.505Z" transform="translate(-2 -2)" fill="#fff"/></g></svg>