<svg xmlns="http://www.w3.org/2000/svg" width="19.904" height="26.537" viewBox="0 0 19.904 26.537"><path d="M634.04,366.325v-3.317m19.541-9.484-5.075-5.079a1.245,1.245,0,0,0-.882-.363h-.316v6.635h6.636V354.4A1.248,1.248,0,0,0,653.581,353.523Zm-7.932,1.606v-7.049H635.283a1.242,1.242,0,0,0-1.243,1.239v13.688h6.635v-3.379a.831.831,0,0,1,1.425-.587l4.956,5a.882.882,0,0,1,0,1.243l-4.967,5a.832.832,0,0,1-1.42-.586v-3.374H634.04v7.049a1.242,1.242,0,0,0,1.239,1.243H652.7a1.242,1.242,0,0,0,1.243-1.239v-17h-7.049A1.249,1.249,0,0,1,645.65,355.13Z" transform="translate(-634.04 -348.081)" fill="#666"/></svg>